<?xml version="1.0" encoding="UTF-8" standalone="no"?>
<svg
   xmlns:dc="http://purl.org/dc/elements/1.1/"
   xmlns:cc="http://creativecommons.org/ns#"
   xmlns:rdf="http://www.w3.org/1999/02/22-rdf-syntax-ns#"
   xmlns:svg="http://www.w3.org/2000/svg"
   xmlns="http://www.w3.org/2000/svg"
   xmlns:sodipodi="http://sodipodi.sourceforge.net/DTD/sodipodi-0.dtd"
   xmlns:inkscape="http://www.inkscape.org/namespaces/inkscape"
   inkscape:version="1.0beta2 (2b71d25, 2019-12-03)"
   sodipodi:docname="facebook_circle.svg"
   id="svg835"
   viewBox="0 0 24 24"
   height="24"
   width="24"
   version="1.1">
  <metadata
     id="metadata841">
    <rdf:RDF>
      <cc:Work
         rdf:about="">
        <dc:format>image/svg+xml</dc:format>
        <dc:type
           rdf:resource="http://purl.org/dc/dcmitype/StillImage" />
      </cc:Work>
    </rdf:RDF>
  </metadata>
  <defs
     id="defs839" />
  <sodipodi:namedview
     inkscape:current-layer="svg835"
     inkscape:window-maximized="0"
     inkscape:window-y="23"
     inkscape:window-x="0"
     inkscape:cy="12"
     inkscape:cx="12"
     inkscape:zoom="28"
     showgrid="false"
     id="namedview837"
     inkscape:window-height="1005"
     inkscape:window-width="1680"
     inkscape:pageshadow="2"
     inkscape:pageopacity="0"
     guidetolerance="10"
     gridtolerance="10"
     objecttolerance="10"
     borderopacity="1"
     inkscape:document-rotation="0"
     bordercolor="#666666"
     pagecolor="#ffffff" />
  <path
     style="fill:#f44647;fill-opacity:1"
     id="path833"
     d="M12 2.04C6.5 2.04 2 6.53 2 12.06C2 17.06 5.66 21.21 10.44 21.96V14.96H7.9V12.06H10.44V9.85C10.44 7.34 11.93 5.96 14.22 5.96C15.31 5.96 16.45 6.15 16.45 6.15V8.62H15.19C13.95 8.62 13.56 9.39 13.56 10.18V12.06H16.34L15.89 14.96H13.56V21.96A10 10 0 0 0 22 12.06C22 6.53 17.5 2.04 12 2.04Z" />
</svg>
