<?xml version="1.0" encoding="UTF-8" standalone="no"?>
<svg
   xmlns:dc="http://purl.org/dc/elements/1.1/"
   xmlns:cc="http://creativecommons.org/ns#"
   xmlns:rdf="http://www.w3.org/1999/02/22-rdf-syntax-ns#"
   xmlns:svg="http://www.w3.org/2000/svg"
   xmlns="http://www.w3.org/2000/svg"
   xmlns:sodipodi="http://sodipodi.sourceforge.net/DTD/sodipodi-0.dtd"
   xmlns:inkscape="http://www.inkscape.org/namespaces/inkscape"
   version="1.1"
   width="24"
   height="24"
   viewBox="0 0 24 24"
   id="svg845"
   sodipodi:docname="ic_github_white.svg"
   inkscape:version="1.1-dev (bc69992, 2020-04-15)">
  <metadata
     id="metadata851">
    <rdf:RDF>
      <cc:Work
         rdf:about="">
        <dc:format>image/svg+xml</dc:format>
        <dc:type
           rdf:resource="http://purl.org/dc/dcmitype/StillImage" />
      </cc:Work>
    </rdf:RDF>
  </metadata>
  <defs
     id="defs849" />
  <sodipodi:namedview
     pagecolor="#ffffff"
     bordercolor="#666666"
     borderopacity="1"
     objecttolerance="10"
     gridtolerance="10"
     guidetolerance="10"
     inkscape:pageopacity="0"
     inkscape:pageshadow="2"
     inkscape:window-width="1680"
     inkscape:window-height="1005"
     id="namedview847"
     showgrid="false"
     inkscape:zoom="16.649758"
     inkscape:cx="1.9307379"
     inkscape:cy="18.169616"
     inkscape:window-x="0"
     inkscape:window-y="23"
     inkscape:window-maximized="0"
     inkscape:current-layer="layer1" />
  <g
     inkscape:groupmode="layer"
     id="layer1"
     inkscape:label="imagen"
     style="display:inline">
    <path
       id="path843"
       d="m 11.986068,22.731011 c -0.42682,-0.03009 -2.8055098,-0.29912 -2.8055098,-0.677575 V 19.684593 C 5.2978973,20.525602 4.4709046,17.806338 4.4709046,17.806338 3.8261306,16.180386 2.9150369,15.745865 2.9150369,15.745865 c -1.2755314,-0.869044 0.098118,-0.84101 0.098118,-0.84101 1.4016826,0.09812 2.1445744,1.443733 2.1445744,1.443733 1.2194638,2.130558 3.2799369,1.4998 4.0788959,1.163397 0.126152,-0.911094 0.490589,-1.527834 0.8830598,-1.878255 -3.1117347,-0.350421 -6.3776552,-1.555868 -6.3776552,-6.8962793 0,-1.555868 0.5326394,-2.8033653 1.4437331,-3.7985586 C 5.0455945,4.5884715 4.5550056,3.1307216 5.325931,1.2384487 c 0,0 1.1774134,-0.37845431 3.8546272,1.4297162 1.1073288,-0.3083701 2.3127758,-0.4625552 3.5042068,-0.4625552 1.19143,0 2.396877,0.1541851 3.504206,0.4625552 2.677214,-1.80817051 3.854627,-1.4297162 3.854627,-1.4297162 0.770926,1.8922729 0.280337,3.3500228 0.140168,3.7004434 0.911094,0.9951933 1.443734,2.2426906 1.443734,3.7985586 0,5.3544283 -3.279938,6.5318413 -6.40569,6.8822623 0.504606,0.434522 0.967161,1.289548 0.967161,2.593113 v 3.84061 c 0,0.378455 -2.438647,0.628396 -2.780013,0.688058 -0.754289,0.07259 -0.745513,0.07208 -1.42289,-0.01051 z"
       style="fill:#ffffff;fill-opacity:1;stroke-width:1.40168"
       sodipodi:nodetypes="cscccccccscccscccscsscc" />
  </g>
</svg>
