<?xml version="1.0" encoding="UTF-8" standalone="no"?>
<svg
   xmlns:dc="http://purl.org/dc/elements/1.1/"
   xmlns:cc="http://creativecommons.org/ns#"
   xmlns:rdf="http://www.w3.org/1999/02/22-rdf-syntax-ns#"
   xmlns:svg="http://www.w3.org/2000/svg"
   xmlns="http://www.w3.org/2000/svg"
   xmlns:sodipodi="http://sodipodi.sourceforge.net/DTD/sodipodi-0.dtd"
   xmlns:inkscape="http://www.inkscape.org/namespaces/inkscape"
   inkscape:version="1.0beta2 (2b71d25, 2019-12-03)"
   sodipodi:docname="linkedin_logo.svg"
   id="svg845"
   viewBox="0 0 24 24"
   height="24"
   width="24"
   version="1.1">
  <metadata
     id="metadata851">
    <rdf:RDF>
      <cc:Work
         rdf:about="">
        <dc:format>image/svg+xml</dc:format>
        <dc:type
           rdf:resource="http://purl.org/dc/dcmitype/StillImage" />
      </cc:Work>
    </rdf:RDF>
  </metadata>
  <defs
     id="defs849" />
  <sodipodi:namedview
     inkscape:current-layer="svg845"
     inkscape:window-maximized="0"
     inkscape:window-y="23"
     inkscape:window-x="0"
     inkscape:cy="12"
     inkscape:cx="1.0147059"
     inkscape:zoom="11.333333"
     showgrid="false"
     id="namedview847"
     inkscape:window-height="1005"
     inkscape:window-width="1680"
     inkscape:pageshadow="2"
     inkscape:pageopacity="0"
     guidetolerance="10"
     gridtolerance="10"
     objecttolerance="10"
     borderopacity="1"
     inkscape:document-rotation="0"
     bordercolor="#666666"
     pagecolor="#ffffff" />
  <path
     style="fill:#f44647;fill-opacity:1"
     id="path843"
     d="M19 3A2 2 0 0 1 21 5V19A2 2 0 0 1 19 21H5A2 2 0 0 1 3 19V5A2 2 0 0 1 5 3H19M18.5 18.5V13.2A3.26 3.26 0 0 0 15.24 9.94C14.39 9.94 13.4 10.46 12.92 11.24V10.13H10.13V18.5H12.92V13.57C12.92 12.8 13.54 12.17 14.31 12.17A1.4 1.4 0 0 1 15.71 13.57V18.5H18.5M6.88 8.56A1.68 1.68 0 0 0 8.56 6.88C8.56 5.95 7.81 5.19 6.88 5.19A1.69 1.69 0 0 0 5.19 6.88C5.19 7.81 5.95 8.56 6.88 8.56M8.27 18.5V10.13H5.5V18.5H8.27Z" />
</svg>
