<?xml version="1.0" encoding="UTF-8" standalone="no"?>
<svg
   xmlns:dc="http://purl.org/dc/elements/1.1/"
   xmlns:cc="http://creativecommons.org/ns#"
   xmlns:rdf="http://www.w3.org/1999/02/22-rdf-syntax-ns#"
   xmlns:svg="http://www.w3.org/2000/svg"
   xmlns="http://www.w3.org/2000/svg"
   xmlns:sodipodi="http://sodipodi.sourceforge.net/DTD/sodipodi-0.dtd"
   xmlns:inkscape="http://www.inkscape.org/namespaces/inkscape"
   inkscape:version="1.0beta2 (2b71d25, 2019-12-03)"
   sodipodi:docname="ic_linkedin_white.svg"
   id="svg851"
   version="1.1"
   width="512"
   viewBox="0 0 24 24"
   height="512"
   enable-background="new 0 0 24 24">
  <metadata
     id="metadata857">
    <rdf:RDF>
      <cc:Work
         rdf:about="">
        <dc:format>image/svg+xml</dc:format>
        <dc:type
           rdf:resource="http://purl.org/dc/dcmitype/StillImage" />
      </cc:Work>
    </rdf:RDF>
  </metadata>
  <defs
     id="defs855" />
  <sodipodi:namedview
     inkscape:current-layer="svg851"
     inkscape:window-maximized="0"
     inkscape:window-y="23"
     inkscape:window-x="0"
     inkscape:cy="256"
     inkscape:cx="21.647059"
     inkscape:zoom="0.53125"
     showgrid="false"
     id="namedview853"
     inkscape:window-height="1005"
     inkscape:window-width="1680"
     inkscape:pageshadow="2"
     inkscape:pageopacity="0"
     guidetolerance="10"
     gridtolerance="10"
     objecttolerance="10"
     borderopacity="1"
     inkscape:document-rotation="0"
     bordercolor="#666666"
     pagecolor="#ffffff" />
  <g
     style="fill:#ffffff;fill-opacity:1"
     id="g849"
     fill="#0077b5">
    <path
       style="fill:#ffffff;fill-opacity:1"
       id="path843"
       d="m23.994 24v-.001h.006v-8.802c0-4.306-.927-7.623-5.961-7.623-2.42 0-4.044 1.328-4.707 2.587h-.07v-2.185h-4.773v16.023h4.97v-7.934c0-2.089.396-4.109 2.983-4.109 2.549 0 2.587 2.384 2.587 4.243v7.801z" />
    <path
       style="fill:#ffffff;fill-opacity:1"
       id="path845"
       d="m.396 7.977h4.976v16.023h-4.976z" />
    <path
       style="fill:#ffffff;fill-opacity:1"
       id="path847"
       d="m2.882 0c-1.591 0-2.882 1.291-2.882 2.882s1.291 2.909 2.882 2.909 2.882-1.318 2.882-2.909c-.001-1.591-1.292-2.882-2.882-2.882z" />
  </g>
</svg>
